<svg width="30" height="30" viewBox="0 0 30 30" fill="none" xmlns="http://www.w3.org/2000/svg">
<path d="M2.5 22.1875C2.5 22.5568 2.57275 22.9226 2.71409 23.2638C2.85543 23.605 3.0626 23.9151 3.32376 24.1762C3.58493 24.4374 3.89497 24.6446 4.2362 24.7859C4.57743 24.9273 4.94316 25 5.3125 25H24.6875C25.0568 25 25.4226 24.9273 25.7638 24.7859C26.105 24.6446 26.4151 24.4374 26.6762 24.1762C26.9374 23.9151 27.1446 23.605 27.2859 23.2638C27.4273 22.9226 27.5 22.5568 27.5 22.1875V7.8125C27.5 7.06658 27.2037 6.35121 26.6762 5.82376C26.1488 5.29632 25.4334 5 24.6875 5H5.3125C4.56658 5 3.85121 5.29632 3.32376 5.82376C2.79632 6.35121 2.5 7.06658 2.5 7.8125V22.1875ZM5.3125 23.125C5.06386 23.125 4.8254 23.0262 4.64959 22.8504C4.47377 22.6746 4.375 22.4361 4.375 22.1875V7.8125C4.375 7.56386 4.47377 7.3254 4.64959 7.14959C4.8254 6.97377 5.06386 6.875 5.3125 6.875H24.6875C24.9361 6.875 25.1746 6.97377 25.3504 7.14959C25.5262 7.3254 25.625 7.56386 25.625 7.8125V22.1875C25.625 22.4361 25.5262 22.6746 25.3504 22.8504C25.1746 23.0262 24.9361 23.125 24.6875 23.125H5.3125ZM15 20.9437C15.2486 20.9435 15.4869 20.8446 15.6625 20.6687L19.7312 16.6C19.8234 16.5142 19.8972 16.4107 19.9485 16.2957C19.9997 16.1807 20.0273 16.0565 20.0295 15.9307C20.0317 15.8048 20.0086 15.6797 19.9614 15.563C19.9143 15.4463 19.8441 15.3402 19.755 15.2512C19.666 15.1622 19.56 15.092 19.4432 15.0448C19.3265 14.9977 19.2015 14.9745 19.0756 14.9768C18.9497 14.979 18.8256 15.0065 18.7106 15.0578C18.5956 15.109 18.4921 15.1829 18.4063 15.275L15.9375 17.7425V9.68375C15.9375 9.43511 15.8387 9.19665 15.6629 9.02084C15.4871 8.84502 15.2486 8.74625 15 8.74625C14.7514 8.74625 14.5129 8.84502 14.3371 9.02084C14.1613 9.19665 14.0625 9.43511 14.0625 9.68375V17.74L11.6 15.275C11.5142 15.1829 11.4107 15.109 11.2957 15.0578C11.1807 15.0065 11.0565 14.979 10.9307 14.9768C10.8048 14.9745 10.6797 14.9977 10.563 15.0448C10.4463 15.092 10.3402 15.1622 10.2512 15.2512C10.1622 15.3402 10.092 15.4463 10.0448 15.563C9.9977 15.6797 9.97454 15.8048 9.97676 15.9307C9.97898 16.0565 10.0065 16.1807 10.0578 16.2957C10.109 16.4107 10.1829 16.5142 10.275 16.6L14.3375 20.6687C14.5125 20.8437 14.75 20.9437 15 20.9437V20.9437Z" fill="black"/>
</svg>
